HIERARCHY
ROOT Root
{
  OFFSET 0.0 0.0 0.0
  CHANNELS 6 Xposition Yposition Zposition Zrotation Yrotation Xrotation
  JOINT Hips
  {
    OFFSET 0.0 100.0 0.0
    CHANNELS 6 Xposition Yposition Zposition Zrotation Yrotation Xrotation
    JOINT Spine1
    {
      OFFSET 5.003913 -0.037094 -0.013727
      CHANNELS 3 Zrotation Yrotation Xrotation
      JOINT Spine2
      {
        OFFSET 7.125363 -1e-06 0.0
        CHANNELS 3 Zrotation Yrotation Xrotation
        JOINT Chest
        {
          OFFSET 7.594027 1e-06 0.0
          CHANNELS 3 Zrotation Yrotation Xrotation
          JOINT Neck1
          {
            OFFSET 26.313086 -0.460272 -0.181672
            CHANNELS 3 Zrotation Yrotation Xrotation
            JOINT Neck2
            {
              OFFSET 8.045911 0.0 0.0
              CHANNELS 3 Zrotation Yrotation Xrotation
              JOINT Head
              {
                OFFSET 6.432774 0.0 0.0
                CHANNELS 3 Zrotation Yrotation Xrotation
                JOINT HeadEnd
                {
                  OFFSET 16.169773 0.06451 0.00362
                  CHANNELS 3 Zrotation Yrotation Xrotation
                }
                JOINT Jaw
                {
                  OFFSET 0.108741 3.12938 0.002639
                  CHANNELS 3 Zrotation Yrotation Xrotation
                }
                JOINT LeftEye
                {
                  OFFSET 4.45173 8.166359 3.206392
                  CHANNELS 3 Zrotation Yrotation Xrotation
                }
                JOINT RightEye
                {
                  OFFSET 4.436895 8.135758 -3.222429
                  CHANNELS 3 Zrotation Yrotation Xrotation
                }
              }
            }
          }
          JOINT LeftShoulder
          {
            OFFSET 23.218927 5.195579 1.621656
            CHANNELS 3 Zrotation Yrotation Xrotation
            JOINT LeftArm
            {
              OFFSET 15.902118 2e-06 -2e-06
              CHANNELS 3 Zrotation Yrotation Xrotation
              JOINT LeftForeArm
              {
                OFFSET 28.739307 0.0 -1e-06
                CHANNELS 3 Zrotation Yrotation Xrotation
                JOINT LeftHand
                {
                  OFFSET 27.093981 -4e-06 0.0
                  CHANNELS 3 Zrotation Yrotation Xrotation
                  JOINT LeftHandThumb1
                  {
                    OFFSET 2.276781 3.380274 0.83384
                    CHANNELS 3 Zrotation Yrotation Xrotation
                    JOINT LeftHandThumb2
                    {
                      OFFSET 4.705309 -1e-06 -1e-06
                      CHANNELS 3 Zrotation Yrotation Xrotation
                      JOINT LeftHandThumb3
                      {
                        OFFSET 2.798515 0.0 3e-06
                        CHANNELS 3 Zrotation Yrotation Xrotation
                        JOINT LeftHandThumbEnd
                        {
                          OFFSET 3.180793 4e-06 -4e-06
                          CHANNELS 3 Zrotation Yrotation Xrotation
                        }
                      }
                    }
                  }
                  JOINT LeftHandIndex1
                  {
                    OFFSET 3.247786 2.352677 0.137192
                    CHANNELS 3 Zrotation Yrotation Xrotation
                    JOINT LeftHandIndex2
                    {
                      OFFSET 6.367095 1e-06 0.0
                      CHANNELS 3 Zrotation Yrotation Xrotation
                      JOINT LeftHandIndex3
                      {
                        OFFSET 3.662364 0.0 0.0
                        CHANNELS 3 Zrotation Yrotation Xrotation
                        JOINT LeftHandIndex4
                        {
                          OFFSET 2.329242 4e-06 -4e-06
                          CHANNELS 3 Zrotation Yrotation Xrotation
                          JOINT LeftHandIndexEnd
                          {
                            OFFSET 2.767823 1e-06 0.0
                            CHANNELS 3 Zrotation Yrotation Xrotation
                          }
                        }
                      }
                    }
                  }
                  JOINT LeftHandMiddle1
                  {
                    OFFSET 3.163612 0.945023 -0.406112
                    CHANNELS 3 Zrotation Yrotation Xrotation
                    JOINT LeftHandMiddle2
                    {
                      OFFSET 6.276789 3e-06 0.0
                      CHANNELS 3 Zrotation Yrotation Xrotation
                      JOINT LeftHandMiddle3
                      {
                        OFFSET 4.35652 -1e-06 4e-06
                        CHANNELS 3 Zrotation Yrotation Xrotation
                        JOINT LeftHandMiddle4
                        {
                          OFFSET 2.996877 0.0 8e-06
                          CHANNELS 3 Zrotation Yrotation Xrotation
                          JOINT LeftHandMiddleEnd
                          {
                            OFFSET 2.323256 3e-06 -4e-06
                            CHANNELS 3 Zrotation Yrotation Xrotation
                          }
                        }
                      }
                    }
                  }
                  JOINT LeftHandRing1
                  {
                    OFFSET 2.882606 -0.309162 0.107445
                    CHANNELS 3 Zrotation Yrotation Xrotation
                    JOINT LeftHandRing2
                    {
                      OFFSET 6.033198 0.0 4e-06
                      CHANNELS 3 Zrotation Yrotation Xrotation
                      JOINT LeftHandRing3
                      {
                        OFFSET 4.350578 3e-06 0.0
                        CHANNELS 3 Zrotation Yrotation Xrotation
                        JOINT LeftHandRing4
                        {
                          OFFSET 2.651321 2e-06 -7e-06
                          CHANNELS 3 Zrotation Yrotation Xrotation
                          JOINT LeftHandRingEnd
                          {
                            OFFSET 1.937663 1e-06 -4e-06
                            CHANNELS 3 Zrotation Yrotation Xrotation
                          }
                        }
                      }
                    }
                  }
                  JOINT LeftHandPinky1
                  {
                    OFFSET 2.865315 -1.525436 0.575687
                    CHANNELS 3 Zrotation Yrotation Xrotation
                    JOINT LeftHandPinky2
                    {
                      OFFSET 5.54936 1e-06 -8e-06
                      CHANNELS 3 Zrotation Yrotation Xrotation
                      JOINT LeftHandPinky3
                      {
                        OFFSET 3.070974 0.0 -4e-06
                        CHANNELS 3 Zrotation Yrotation Xrotation
                        JOINT LeftHandPinky4
                        {
                          OFFSET 1.549672 1e-06 0.0
                          CHANNELS 3 Zrotation Yrotation Xrotation
                          JOINT LeftHandPinkyEnd
                          {
                            OFFSET 1.952123 0.0 0.0
                            CHANNELS 3 Zrotation Yrotation Xrotation
                          }
                        }
                      }
                    }
                  }
                }
              }
            }
          }
          JOINT RightShoulder
          {
            OFFSET 23.161716 5.296122 -1.380114
            CHANNELS 3 Zrotation Yrotation Xrotation
            JOINT RightArm
            {
              OFFSET -16.027195 -2e-06 1.1e-05
              CHANNELS 3 Zrotation Yrotation Xrotation
              JOINT RightForeArm
              {
                OFFSET -28.736639 4e-06 2e-06
                CHANNELS 3 Zrotation Yrotation Xrotation
                JOINT RightHand
                {
                  OFFSET -27.133619 6e-06 0.0
                  CHANNELS 3 Zrotation Yrotation Xrotation
                  JOINT RightHandThumb1
                  {
                    OFFSET -2.274328 -3.351035 -0.83067
                    CHANNELS 3 Zrotation Yrotation Xrotation
                    JOINT RightHandThumb2
                    {
                      OFFSET -4.703594 -3e-06 2e-06
                      CHANNELS 3 Zrotation Yrotation Xrotation
                      JOINT RightHandThumb3
                      {
                        OFFSET -2.794935 -4e-06 -3e-06
                        CHANNELS 3 Zrotation Yrotation Xrotation
                        JOINT RightHandThumbEnd
                        {
                          OFFSET -3.183852 4e-06 1e-06
                          CHANNELS 3 Zrotation Yrotation Xrotation
                        }
                      }
                    }
                  }
                  JOINT RightHandIndex1
                  {
                    OFFSET -3.253496 -2.33755 -0.127667
                    CHANNELS 3 Zrotation Yrotation Xrotation
                    JOINT RightHandIndex2
                    {
                      OFFSET -6.344434 0.0 0.0
                      CHANNELS 3 Zrotation Yrotation Xrotation
                      JOINT RightHandIndex3
                      {
                        OFFSET -3.654871 0.0 -8e-06
                        CHANNELS 3 Zrotation Yrotation Xrotation
                        JOINT RightHandIndex4
                        {
                          OFFSET -2.327586 -1e-06 0.0
                          CHANNELS 3 Zrotation Yrotation Xrotation
                          JOINT RightHandIndexEnd
                          {
                            OFFSET -2.770001 3e-06 8e-06
                            CHANNELS 3 Zrotation Yrotation Xrotation
                          }
                        }
                      }
                    }
                  }
                  JOINT RightHandMiddle1
                  {
                    OFFSET -3.168223 -0.944764 0.411762
                    CHANNELS 3 Zrotation Yrotation Xrotation
                    JOINT RightHandMiddle2
                    {
                      OFFSET -6.266691 -1e-06 -4e-06
                      CHANNELS 3 Zrotation Yrotation Xrotation
                      JOINT RightHandMiddle3
                      {
                        OFFSET -4.348901 0.0 0.0
                        CHANNELS 3 Zrotation Yrotation Xrotation
                        JOINT RightHandMiddle4
                        {
                          OFFSET -3.00024 2e-06 -4e-06
                          CHANNELS 3 Zrotation Yrotation Xrotation
                          JOINT RightHandMiddleEnd
                          {
                            OFFSET -2.321477 -4e-06 -4e-06
                            CHANNELS 3 Zrotation Yrotation Xrotation
                          }
                        }
                      }
                    }
                  }
                  JOINT RightHandRing1
                  {
                    OFFSET -2.885654 0.293261 -0.119232
                    CHANNELS 3 Zrotation Yrotation Xrotation
                    JOINT RightHandRing2
                    {
                      OFFSET -6.032835 -1e-06 -4e-06
                      CHANNELS 3 Zrotation Yrotation Xrotation
                      JOINT RightHandRing3
                      {
                        OFFSET -4.33881 0.0 -4e-06
                        CHANNELS 3 Zrotation Yrotation Xrotation
                        JOINT RightHandRing4
                        {
                          OFFSET -2.654903 -4e-06 -4e-06
                          CHANNELS 3 Zrotation Yrotation Xrotation
                          JOINT RightHandRingEnd
                          {
                            OFFSET -1.935122 0.0 4e-06
                            CHANNELS 3 Zrotation Yrotation Xrotation
                          }
                        }
                      }
                    }
                  }
                  JOINT RightHandPinky1
                  {
                    OFFSET -2.866241 1.503904 -0.60527
                    CHANNELS 3 Zrotation Yrotation Xrotation
                    JOINT RightHandPinky2
                    {
                      OFFSET -5.553177 -2e-06 0.0
                      CHANNELS 3 Zrotation Yrotation Xrotation
                      JOINT RightHandPinky3
                      {
                        OFFSET -3.062664 -1e-06 -4e-06
                        CHANNELS 3 Zrotation Yrotation Xrotation
                        JOINT RightHandPinky4
                        {
                          OFFSET -1.546529 2e-06 4e-06
                          CHANNELS 3 Zrotation Yrotation Xrotation
                          JOINT RightHandPinkyEnd
                          {
                            OFFSET -1.952341 0.0 -4e-06
                            CHANNELS 3 Zrotation Yrotation Xrotation
                          }
                        }
                      }
                    }
                  }
                }
              }
            }
          }
        }
      }
    }
    JOINT LeftLeg
    {
      OFFSET -8.443107 2.567604 10.043214
      CHANNELS 3 Zrotation Yrotation Xrotation
      JOINT LeftShin
      {
        OFFSET 43.229198 1e-06 -1e-06
        CHANNELS 3 Zrotation Yrotation Xrotation
        JOINT LeftFoot
        {
          OFFSET 42.298611 1e-06 1e-06
          CHANNELS 3 Zrotation Yrotation Xrotation
          JOINT LeftToeBase
          {
            OFFSET 14.165858 1e-06 0.0
            CHANNELS 3 Zrotation Yrotation Xrotation
            JOINT LeftToeEnd
            {
              OFFSET 6.7141 -0.234461 0.0
              CHANNELS 3 Zrotation Yrotation Xrotation
            }
          }
        }
      }
    }
    JOINT RightLeg
    {
      OFFSET -8.303923 2.592729 -10.047278
      CHANNELS 3 Zrotation Yrotation Xrotation
      JOINT RightShin
      {
        OFFSET -43.369682 0.0 1e-06
        CHANNELS 3 Zrotation Yrotation Xrotation
        JOINT RightFoot
        {
          OFFSET -42.260784 4e-06 2e-06
          CHANNELS 3 Zrotation Yrotation Xrotation
          JOINT RightToeBase
          {
            OFFSET -14.222245 -2e-06 -1e-06
            CHANNELS 3 Zrotation Yrotation Xrotation
            JOINT RightToeEnd
            {
              OFFSET -6.660062 0.232574 -2e-06
              CHANNELS 3 Zrotation Yrotation Xrotation
            }
          }
        }
      }
    }
  }
}
MOTION
Frames: 4
Frame Time: 0.03333333333333333
0.0 0.0 0.0 0.0 -0.0 0.0 1.467234 99.617058 -0.451685 90.406639 0.811933 91.786972 -0.266705 1.09548 0.130386 -11.512868 -0.13975 0.433915 20.117277 0.14384 -2.014199 35.321663 -4.215087 2.517559 -2.507676 -0.667598 -1.503892 -26.012346 -1.275568 -2.024552 6e-06 0.0 0.0 -0.014989 0.019691 0.004475 0.125446 0.069263 0.044493 0.134669 -0.04167 -0.032423 -90.045547 -74.918457 103.895203 41.920647 -1.660492 -21.061438 57.233631 0.213006 -2.461494 20.391468 6.867102 -59.261864 17.636631 -26.322721 52.411171 -19.466652 -14.395594 29.410378 1e-06 -8.774821 -3e-06 15.884609 -17.333885 6.47558 -0.609776 -1.795654 -3.889327 -4.807089 -11.046807 -2.93785 4e-06 -20.976011 -1e-06 -5.019971 -25.033552 -4.03188 7e-06 -1e-06 -0.0 -10.634534 -5.68697 -3.565586 10.573272 -17.922947 -3.113899 2e-06 -13.821205 0.0 -0.501779 -31.181498 -4.027016 -11.603178 -58.908798 7.597437 -13.982712 -7.150197 -2.875041 13.772727 -8.401488 -3.218239 0.347733 -34.211536 0.771653 -0.963028 -17.733366 2.621019 -0.0 0.0 -1e-06 -17.346416 -20.095217 -4.20178 21.757557 -1.638373 3.866429 1e-06 -6.338821 0.0 -1.69759 -22.59174 -6.194005 0.0 -5e-06 -2e-06 148.242386 -80.106636 42.329399 39.629822 -8.366608 -24.984926 57.727146 -0.44516 -1.181559 17.768389 10.866268 -63.338673 22.182106 -20.375887 49.9333 -16.701811 -16.743525 28.476524 -1e-06 -12.690597 -1e-06 15.136213 -16.833351 3.326062 -0.105919 -1.513857 -4.275881 -5.039039 -5.61287 -2.953556 4e-06 -11.020521 -2e-06 -6.111296 -15.89533 -3.840469 0.0 -1e-06 0.0 -10.283367 -5.680286 -4.341838 11.02829 -11.302402 -2.372633 -1.384267 -14.238575 -6.32012 -0.625438 -26.924185 -3.8276 -4.787907 -49.713348 -2.699875 -13.70852 -7.363472 -3.720939 18.141146 -14.052738 -3.242674 6e-06 -18.787266 -2e-06 -0.429711 -8.456043 2.555502 -0.0 1e-06 0.0 -15.923532 -20.094482 -5.473581 30.419205 -7.190825 1.735924 1e-06 -8.162925 -1e-06 -1.861899 -22.861467 -6.167942 -1e-06 -2e-06 -1e-06 176.618393 -6.210386 -8.195596 15.370938 -0.089909 0.165612 -79.467445 1.466961 -7.068311 -5.050033 1.487894 2.088151 -0.999999 -0.0 0.0 -2.219459 -8.241957 -12.175772 14.765073 0.055285 0.012038 -79.045891 -0.121054 -9.213451 -5.375528 0.669421 1.653978 -1.000001 -1e-06 -0.0 
0.0 0.0 0.0 0.0 -0.0 0.0 1.489576 99.604813 -0.451282 90.401268 0.759425 91.768967 -0.225508 1.106962 0.132996 -11.503744 -0.115129 0.462801 20.09704 0.133536 -2.018874 35.083954 -4.227123 2.503738 -2.50015 -0.686756 -1.499653 -26.323595 -1.240104 -2.06663 5e-06 0.0 -0.0 -0.016114 0.018191 0.012723 0.136152 0.064945 0.053078 0.145414 -0.040486 -0.023999 -90.492149 -74.920166 104.374916 41.728512 -1.59051 -21.346079 56.714668 0.212984 -2.397853 20.343472 6.718526 -59.39534 17.636625 -26.322729 52.411182 -19.46666 -14.395596 29.410385 0.0 -8.774821 -1e-06 15.84148 -17.311228 6.500322 -0.609777 -1.795654 -3.889326 -4.807087 -11.046809 -2.93785 5e-06 -20.976015 -1e-06 -5.019971 -25.033552 -4.031879 7e-06 -2e-06 0.0 -10.634533 -5.68697 -3.565586 10.573272 -17.922947 -3.1139 3e-06 -13.821205 1e-06 -0.501777 -31.181498 -4.027014 -11.602441 -58.898506 7.579943 -13.982712 -7.150197 -2.87504 13.77273 -8.401493 -3.218242 0.347733 -34.211544 0.771655 -0.963028 -17.73337 2.621019 -0.0 0.0 -0.0 -17.346415 -20.095215 -4.201779 21.757555 -1.638375 3.866426 1e-06 -6.33882 1e-06 -1.697587 -22.591742 -6.194005 0.0 -3e-06 -2e-06 148.619034 -80.076271 42.012383 39.183273 -8.483478 -25.231628 57.671085 -0.392705 -1.117266 17.574137 10.96457 -63.163589 22.182112 -20.375889 49.933315 -16.701813 -16.743528 28.47653 -2e-06 -12.690599 -1e-06 15.086744 -16.880102 3.364478 -0.105919 -1.513855 -4.275881 -5.039041 -5.612873 -2.953557 4e-06 -11.020523 -2e-06 -6.111297 -15.89533 -3.840471 -0.0 -1e-06 -0.0 -10.283369 -5.680286 -4.341839 11.028293 -11.302402 -2.372633 -1.384269 -14.238576 -6.32012 -0.625438 -26.924187 -3.827602 -4.817539 -49.773262 -2.67934 -13.708524 -7.363475 -3.720939 18.141146 -14.052737 -3.242674 5e-06 -18.787266 -2e-06 -0.429712 -8.456043 2.555503 -0.0 -0.0 -1e-06 -15.923534 -20.094479 -5.473585 30.419207 -7.190827 1.735926 1e-06 -8.16292 0.0 -1.8619 -22.861467 -6.167942 -1e-06 -2e-06 -2e-06 176.495041 -6.218471 -8.216044 15.545501 -0.092961 0.174873 -79.561157 1.460745 -7.042686 -5.038655 1.480876 2.08673 -0.999999 0.0 0.0 -2.341558 -8.270045 -12.170462 14.897969 0.049249 0.022246 -79.102341 -0.0932 -9.19723 -5.381457 0.666909 1.646964 -1.000002 0.0 0.0 
0.0 0.0 0.0 0.0 -0.0 0.0 1.515037 99.587196 -0.437256 90.395088 0.670347 91.74781 -0.1834 1.117726 0.121506 -11.48989 -0.097228 0.470928 20.03614 0.115323 -2.019698 34.771519 -4.18929 2.491582 -2.498598 -0.716602 -1.458523 -26.621883 -1.256232 -2.075953 5e-06 0.0 0.0 -0.018516 0.0189 0.010267 0.136761 0.064644 0.049557 0.141696 -0.038427 -0.024987 -90.972862 -74.876343 104.897705 41.35112 -1.557967 -22.112616 55.792236 0.036634 -2.294694 20.266506 6.434441 -59.720676 17.636629 -26.322725 52.411182 -19.466658 -14.395591 29.410378 1e-06 -8.774819 -2e-06 15.800145 -17.32362 6.528561 -0.609777 -1.795653 -3.889327 -4.807087 -11.046807 -2.937849 4e-06 -20.976015 -1e-06 -5.019971 -25.033554 -4.031879 6e-06 0.0 -0.0 -10.634531 -5.686968 -3.565588 10.57327 -17.922945 -3.113899 2e-06 -13.821205 1e-06 -0.501778 -31.181494 -4.027015 -11.584637 -58.789589 7.561721 -13.982711 -7.150197 -2.875042 13.772726 -8.401489 -3.21824 0.347733 -34.211544 0.771654 -0.963029 -17.73337 2.621018 1e-06 -1e-06 1e-06 -17.346413 -20.095213 -4.201781 21.757555 -1.638373 3.866429 1e-06 -6.338822 1e-06 -1.697589 -22.591742 -6.194006 0.0 -6e-06 -2e-06 148.389938 -80.039345 42.286255 38.593208 -8.772714 -25.6215 57.635658 -0.317589 -1.023461 17.197006 11.093474 -63.22123 22.182114 -20.375898 49.933327 -16.701818 -16.74353 28.476534 -3e-06 -12.690601 -0.0 15.05077 -16.938833 3.387607 -0.105919 -1.513857 -4.275882 -5.03904 -5.612871 -2.953557 4e-06 -11.020525 -2e-06 -6.111297 -15.895338 -3.840471 -0.0 -0.0 0.0 -10.283369 -5.680288 -4.341838 11.028296 -11.302407 -2.372634 -1.384268 -14.238582 -6.320122 -0.625437 -26.924192 -3.827602 -4.845335 -49.753429 -2.668319 -13.708524 -7.363476 -3.72094 18.14115 -14.052741 -3.242676 6e-06 -18.78727 -1e-06 -0.429712 -8.456047 2.555502 -0.0 0.0 -1e-06 -15.923536 -20.094484 -5.473585 30.41921 -7.190826 1.735924 2e-06 -8.162926 -1e-06 -1.861901 -22.861473 -6.167943 0.0 -1e-06 -2e-06 176.306427 -6.229869 -8.239523 15.783319 -0.098052 0.180852 -79.68811 1.44136 -7.014692 -5.015827 1.459502 2.083177 -0.999999 -0.0 -0.0 -2.522802 -8.307359 -12.204679 15.093289 0.036427 0.032946 -79.197166 -0.030798 -9.187584 -5.358788 0.665879 1.641613 -1.000002 -0.0 -0.0 
0.0 0.0 0.0 0.0 -0.0 0.0 1.542115 99.570175 -0.40296 90.396721 0.552509 91.705307 -0.1497 1.119082 0.090882 -11.470941 -0.092968 0.462358 19.947605 0.093404 -2.008943 34.416378 -4.142357 2.483556 -2.517512 -0.737537 -1.393607 -26.880749 -1.305452 -2.034902 6e-06 -0.0 0.0 -0.023265 0.022931 -0.004525 0.127841 0.068872 0.033067 0.127579 -0.034122 -0.037713 -91.530014 -74.778625 105.513214 40.821365 -1.591605 -23.389378 54.496086 -0.277885 -2.210927 20.167444 6.019556 -60.102497 17.636629 -26.322731 52.41119 -19.466663 -14.395596 29.410389 0.0 -8.774821 -2e-06 15.777917 -17.354414 6.52518 -0.609776 -1.795654 -3.889327 -4.807087 -11.046809 -2.93785 5e-06 -20.976021 -1e-06 -5.019969 -25.03356 -4.031878 6e-06 -1e-06 -0.0 -10.634533 -5.686971 -3.565586 10.573275 -17.922951 -3.113901 3e-06 -13.821209 0.0 -0.501776 -31.181507 -4.027017 -11.546915 -58.636261 7.510725 -13.982713 -7.150198 -2.875041 13.77273 -8.401492 -3.218242 0.347735 -34.211555 0.771654 -0.963027 -17.73337 2.621019 0.0 -0.0 0.0 -17.346416 -20.095217 -4.20178 21.757555 -1.638375 3.866427 1e-06 -6.338823 1e-06 -1.69759 -22.591742 -6.194005 -0.0 -3e-06 -2e-06 147.675827 -80.042328 43.053516 37.811455 -9.259739 -26.237066 57.71307 -0.259706 -0.901272 16.64093 11.238874 -63.304401 22.182106 -20.375891 49.933319 -16.701813 -16.74353 28.476532 -3e-06 -12.6906 1e-06 15.055834 -16.97538 3.375071 -0.105919 -1.513855 -4.27588 -5.039041 -5.612872 -2.953557 4e-06 -11.020523 -2e-06 -6.111298 -15.895332 -3.84047 0.0 -2e-06 -0.0 -10.28337 -5.680288 -4.341837 11.028294 -11.302406 -2.372634 -1.384269 -14.238579 -6.320121 -0.625438 -26.924189 -3.827603 -4.859629 -49.720863 -2.696284 -13.708522 -7.363477 -3.720938 18.14115 -14.052736 -3.242676 5e-06 -18.787264 -3e-06 -0.429712 -8.456047 2.555503 0.0 -1e-06 -1e-06 -15.923532 -20.094484 -5.473584 30.41921 -7.190823 1.735923 3e-06 -8.162922 -1e-06 -1.8619 -22.861469 -6.167943 1e-06 -2e-06 -1e-06 176.111557 -6.229556 -8.264711 15.999199 -0.103329 0.18234 -79.815262 1.411123 -6.991362 -4.988882 1.420923 2.079239 -0.999999 1e-06 0.0 -2.73047 -8.350661 -12.228533 15.29689 0.022943 0.036392 -79.309494 0.047812 -9.192517 -5.310246 0.665843 1.639416 -1.000001 -1e-06 0.0 
